<?xml version="1.0" encoding="utf-8"?>
<!-- Generator: Adobe Illustrator 16.0.0, SVG Export Plug-In . SVG Version: 6.00 Build 0)  -->
<!DOCTYPE svg PUBLIC "-//W3C//DTD SVG 1.1//EN" "http://www.w3.org/Graphics/SVG/1.1/DTD/svg11.dtd">
<svg version="1.1" id="Layer_1" xmlns="http://www.w3.org/2000/svg" xmlns:xlink="http://www.w3.org/1999/xlink" x="0px" y="0px"
	 width="211.218px" height="16.087px" viewBox="0 0 211.218 16.087" enable-background="new 0 0 211.218 16.087"
	 xml:space="preserve">
<g id="Rectangle_2_copy">
	<g>
		<polygon fill="#E76149" points="11.077,0 11.077,6.956 6.923,6.956 6.923,0 0,0 0,16.087 18,16.087 18,0 		"/>
	</g>
</g>
<g id="EXTRAORDINARY">
	<g>
		<path fill="#FFFFFF" d="M41.3,9.127H48v-2.1h-6.7v-3.7h7.46V1.106H38.94v13.98H49v-2.22h-7.7V9.127z M62.5,1.106h-2.92
			l-3.12,4.721h-0.101L53.24,1.106h-2.92l4.46,6.801l-4.801,7.18h2.94l3.439-5.26h0.101l3.439,5.26h2.94l-4.8-7.18L62.5,1.106z
			 M63.359,3.267h4.24v11.82h2.36V3.267h4.239v-2.16h-10.84V3.267z M87.52,5.646c0-1.586-0.46-2.739-1.38-3.46
			c-0.92-0.72-2.447-1.08-4.58-1.08h-5.2v13.98h2.36v-4.7h3.1l3.34,4.7h3l-3.66-5.08C86.513,9.407,87.52,7.954,87.52,5.646z
			 M81.659,8.247H78.72v-5h3c1.267,0,2.146,0.17,2.64,0.51s0.74,0.967,0.74,1.88c0,0.914-0.24,1.577-0.721,1.99
			C83.899,8.04,82.992,8.247,81.659,8.247z M94.739,1.106l-6.16,13.98H91.1l1.399-3.18h7l1.4,3.18h2.52L97.26,1.106H94.739z
			 M93.459,9.727l2.54-5.76l2.54,5.76H93.459z M111.279,0.787c-2.067,0-3.807,0.689-5.22,2.07c-1.414,1.38-2.12,3.097-2.12,5.149
			c0,2.054,0.706,3.771,2.12,5.15c1.413,1.38,3.152,2.069,5.22,2.069c2.066,0,3.807-0.689,5.22-2.069s2.12-3.097,2.12-5.15
			c0-2.053-0.707-3.77-2.12-5.149C115.086,1.477,113.346,0.787,111.279,0.787z M114.239,11.197c-0.8,0.873-1.783,1.31-2.95,1.31
			s-2.15-0.437-2.95-1.31s-1.2-1.934-1.2-3.181c0-1.246,0.4-2.31,1.2-3.189s1.783-1.32,2.95-1.32s2.15,0.44,2.95,1.32
			s1.2,1.943,1.2,3.189C115.439,9.264,115.039,10.324,114.239,11.197z M132.199,5.747c0-1.627-0.464-2.807-1.391-3.54
			s-2.477-1.101-4.649-1.101h-5.3v13.98h3.119v-4.46h2.16l3.101,4.46h3.84l-3.54-5C131.312,9.434,132.199,7.987,132.199,5.747z
			 M128.438,7.407c-0.387,0.347-1.113,0.52-2.18,0.52h-2.28v-4.14h2.341c1,0,1.699,0.14,2.1,0.42s0.6,0.797,0.6,1.55
			C129.019,6.511,128.825,7.061,128.438,7.407z M139.938,1.106h-4.939v13.98h4.779c2.667,0,4.65-0.633,5.95-1.9
			c1.3-1.267,1.95-2.986,1.95-5.159c0-2.174-0.667-3.87-2-5.091C144.346,1.717,142.432,1.106,139.938,1.106z M143.389,11.247
			c-0.767,0.72-1.863,1.08-3.29,1.08h-1.979v-8.5h1.739c1.587,0,2.764,0.37,3.53,1.109c0.767,0.74,1.15,1.797,1.15,3.17
			C144.539,9.48,144.155,10.527,143.389,11.247z M149.979,15.087h3.12V1.106h-3.12V15.087z M165.918,10.106l-6.859-9h-2.92v13.98
			h3.12v-8.76l6.659,8.76h3.12V1.106h-3.12V10.106z M176.298,1.106l-6.04,13.98h3.32l1.3-3.02h5.86l1.3,3.02h3.32l-6.04-13.98
			H176.298z M176.058,9.327l1.761-4.061l1.739,4.061H176.058z M197.918,5.747c0-1.627-0.464-2.807-1.39-3.54
			c-0.927-0.733-2.478-1.101-4.65-1.101h-5.3v13.98h3.12v-4.46h2.16l3.1,4.46h3.84l-3.54-5
			C197.031,9.434,197.918,7.987,197.918,5.747z M194.158,7.407c-0.387,0.347-1.113,0.52-2.18,0.52h-2.28v-4.14h2.34
			c1,0,1.7,0.14,2.1,0.42c0.4,0.28,0.601,0.797,0.601,1.55C194.738,6.511,194.545,7.061,194.158,7.407z M207.838,1.106l-3.02,5.2
			l-3.021-5.2h-3.38l4.84,8.46v5.521h3.12V9.566l4.84-8.46H207.838z"/>
	</g>
</g>
</svg>
